<svg xmlns="http://www.w3.org/2000/svg" xmlns:xlink="http://www.w3.org/1999/xlink" width="100" zoomAndPan="magnify" viewBox="0 0 75 74.999997" height="100" preserveAspectRatio="xMidYMid meet" version="1.0"><defs><g/></defs><g fill="#2c88f4" fill-opacity="1"><g transform="translate(0.0117202, 44.548554)"><g><path d="M 7.140625 -14.046875 C 7.140625 -13.742188 7.039062 -13.476562 6.84375 -13.25 C 6.65625 -13.019531 6.429688 -12.832031 6.171875 -12.6875 C 5.929688 -12.539062 5.679688 -12.382812 5.421875 -12.21875 C 5.171875 -12.050781 4.9375 -11.863281 4.71875 -11.65625 C 4.507812 -11.445312 4.335938 -11.21875 4.203125 -10.96875 C 4.066406 -10.71875 4 -10.429688 4 -10.109375 C 4 -9.828125 4.066406 -9.570312 4.203125 -9.34375 C 4.335938 -9.125 4.5 -8.898438 4.6875 -8.671875 C 4.882812 -8.453125 5.097656 -8.222656 5.328125 -7.984375 C 5.566406 -7.753906 5.78125 -7.492188 5.96875 -7.203125 C 6.164062 -6.921875 6.332031 -6.597656 6.46875 -6.234375 C 6.601562 -5.878906 6.671875 -5.460938 6.671875 -4.984375 C 6.671875 -4.648438 6.597656 -4.269531 6.453125 -3.84375 C 6.316406 -3.425781 6.128906 -3.003906 5.890625 -2.578125 C 5.648438 -2.148438 5.363281 -1.734375 5.03125 -1.328125 C 4.707031 -0.929688 4.359375 -0.578125 3.984375 -0.265625 C 3.617188 0.046875 3.238281 0.296875 2.84375 0.484375 C 2.445312 0.679688 2.0625 0.78125 1.6875 0.78125 C 1.269531 0.78125 0.898438 0.664062 0.578125 0.4375 C 0.253906 0.207031 0.09375 -0.128906 0.09375 -0.578125 C 0.09375 -0.890625 0.164062 -1.175781 0.3125 -1.4375 C 0.46875 -1.695312 0.648438 -1.945312 0.859375 -2.1875 C 1.078125 -2.425781 1.316406 -2.65625 1.578125 -2.875 C 1.835938 -3.101562 2.070312 -3.332031 2.28125 -3.5625 C 2.5 -3.789062 2.679688 -4.023438 2.828125 -4.265625 C 2.972656 -4.515625 3.046875 -4.78125 3.046875 -5.0625 C 3.046875 -5.445312 2.90625 -5.84375 2.625 -6.25 C 2.351562 -6.65625 2.050781 -7.078125 1.71875 -7.515625 C 1.382812 -7.953125 1.082031 -8.394531 0.8125 -8.84375 C 0.539062 -9.300781 0.40625 -9.765625 0.40625 -10.234375 C 0.40625 -10.804688 0.554688 -11.410156 0.859375 -12.046875 C 1.171875 -12.679688 1.566406 -13.257812 2.046875 -13.78125 C 2.523438 -14.3125 3.0625 -14.75 3.65625 -15.09375 C 4.257812 -15.4375 4.859375 -15.609375 5.453125 -15.609375 C 5.910156 -15.609375 6.304688 -15.46875 6.640625 -15.1875 C 6.972656 -14.914062 7.140625 -14.535156 7.140625 -14.046875 Z M 7.140625 -14.046875 "/></g></g></g><g fill="#2c88f4" fill-opacity="1"><g transform="translate(7.257409, 44.548554)"><g><path d="M 5.265625 0.71875 C 4.316406 0.71875 3.578125 0.59375 3.046875 0.34375 C 2.523438 0.101562 2.132812 -0.238281 1.875 -0.6875 C 1.613281 -1.144531 1.457031 -1.691406 1.40625 -2.328125 C 1.351562 -2.972656 1.328125 -3.691406 1.328125 -4.484375 C 1.328125 -5.109375 1.34375 -5.738281 1.375 -6.375 C 1.414062 -7.007812 1.476562 -7.6875 1.5625 -8.40625 C 1.375 -8.40625 1.226562 -8.398438 1.125 -8.390625 C 1.019531 -8.390625 0.929688 -8.390625 0.859375 -8.390625 C 0.429688 -8.390625 0.0625 -8.484375 -0.25 -8.671875 C -0.5625 -8.859375 -0.71875 -9.144531 -0.71875 -9.53125 C -0.71875 -9.769531 -0.628906 -9.984375 -0.453125 -10.171875 C -0.273438 -10.359375 -0.046875 -10.515625 0.234375 -10.640625 C 0.515625 -10.773438 0.816406 -10.882812 1.140625 -10.96875 C 1.472656 -11.050781 1.785156 -11.101562 2.078125 -11.125 C 2.078125 -11.5 2.101562 -11.910156 2.15625 -12.359375 C 2.21875 -12.816406 2.316406 -13.242188 2.453125 -13.640625 C 2.585938 -14.035156 2.773438 -14.363281 3.015625 -14.625 C 3.265625 -14.894531 3.570312 -15.03125 3.9375 -15.03125 C 4.15625 -15.03125 4.347656 -14.96875 4.515625 -14.84375 C 4.679688 -14.71875 4.816406 -14.554688 4.921875 -14.359375 C 5.023438 -14.171875 5.101562 -13.957031 5.15625 -13.71875 C 5.21875 -13.476562 5.25 -13.242188 5.25 -13.015625 C 5.25 -12.742188 5.226562 -12.46875 5.1875 -12.1875 C 5.144531 -11.90625 5.070312 -11.5625 4.96875 -11.15625 C 5.195312 -11.175781 5.347656 -11.191406 5.421875 -11.203125 C 5.503906 -11.210938 5.578125 -11.21875 5.640625 -11.21875 C 5.867188 -11.21875 6.109375 -11.195312 6.359375 -11.15625 C 6.609375 -11.113281 6.832031 -11.046875 7.03125 -10.953125 C 7.238281 -10.859375 7.410156 -10.734375 7.546875 -10.578125 C 7.679688 -10.421875 7.75 -10.238281 7.75 -10.03125 C 7.75 -9.789062 7.648438 -9.578125 7.453125 -9.390625 C 7.265625 -9.203125 7.019531 -9.039062 6.71875 -8.90625 C 6.425781 -8.769531 6.113281 -8.664062 5.78125 -8.59375 C 5.445312 -8.519531 5.132812 -8.472656 4.84375 -8.453125 C 4.757812 -7.898438 4.703125 -7.394531 4.671875 -6.9375 C 4.640625 -6.476562 4.601562 -6.015625 4.5625 -5.546875 C 4.539062 -5.316406 4.519531 -5.082031 4.5 -4.84375 C 4.476562 -4.613281 4.46875 -4.378906 4.46875 -4.140625 C 4.46875 -3.972656 4.472656 -3.769531 4.484375 -3.53125 C 4.492188 -3.300781 4.539062 -3.078125 4.625 -2.859375 C 4.707031 -2.648438 4.832031 -2.46875 5 -2.3125 C 5.175781 -2.15625 5.414062 -2.078125 5.71875 -2.078125 C 5.90625 -2.078125 6.097656 -2.09375 6.296875 -2.125 C 6.503906 -2.164062 6.707031 -2.1875 6.90625 -2.1875 C 7.25 -2.1875 7.5 -2.066406 7.65625 -1.828125 C 7.8125 -1.585938 7.890625 -1.28125 7.890625 -0.90625 C 7.890625 -0.625 7.804688 -0.378906 7.640625 -0.171875 C 7.472656 0.0351562 7.257812 0.203125 7 0.328125 C 6.75 0.453125 6.46875 0.546875 6.15625 0.609375 C 5.84375 0.679688 5.546875 0.71875 5.265625 0.71875 Z M 5.265625 0.71875 "/></g></g></g><g fill="#2c88f4" fill-opacity="1"><g transform="translate(14.943444, 44.548554)"><g><path d="M 7.546875 -7.484375 C 7.359375 -7.472656 7.195312 -7.488281 7.0625 -7.53125 C 6.925781 -7.582031 6.796875 -7.632812 6.671875 -7.6875 C 6.546875 -7.738281 6.421875 -7.785156 6.296875 -7.828125 C 6.179688 -7.878906 6.050781 -7.898438 5.90625 -7.890625 C 5.632812 -7.878906 5.394531 -7.804688 5.1875 -7.671875 C 4.988281 -7.535156 4.804688 -7.363281 4.640625 -7.15625 C 4.472656 -6.957031 4.328125 -6.734375 4.203125 -6.484375 C 4.085938 -6.242188 3.992188 -6.003906 3.921875 -5.765625 C 3.878906 -5.609375 3.847656 -5.363281 3.828125 -5.03125 C 3.804688 -4.707031 3.796875 -4.359375 3.796875 -3.984375 C 3.785156 -3.597656 3.78125 -3.226562 3.78125 -2.875 C 3.78125 -2.53125 3.769531 -2.257812 3.75 -2.0625 C 3.726562 -1.84375 3.691406 -1.585938 3.640625 -1.296875 C 3.585938 -1.015625 3.503906 -0.75 3.390625 -0.5 C 3.273438 -0.25 3.125 -0.0351562 2.9375 0.140625 C 2.75 0.316406 2.507812 0.40625 2.21875 0.40625 C 1.988281 0.40625 1.789062 0.335938 1.625 0.203125 C 1.457031 0.0664062 1.316406 -0.109375 1.203125 -0.328125 C 1.097656 -0.546875 1.007812 -0.800781 0.9375 -1.09375 C 0.863281 -1.394531 0.804688 -1.695312 0.765625 -2 C 0.722656 -2.320312 0.691406 -2.640625 0.671875 -2.953125 C 0.648438 -3.273438 0.632812 -3.578125 0.625 -3.859375 C 0.625 -4.148438 0.625 -4.414062 0.625 -4.65625 C 0.632812 -4.90625 0.640625 -5.101562 0.640625 -5.25 C 0.628906 -5.71875 0.601562 -6.1875 0.5625 -6.65625 C 0.53125 -7.132812 0.515625 -7.601562 0.515625 -8.0625 C 0.515625 -8.363281 0.523438 -8.691406 0.546875 -9.046875 C 0.578125 -9.410156 0.65625 -9.75 0.78125 -10.0625 C 0.90625 -10.375 1.082031 -10.632812 1.3125 -10.84375 C 1.539062 -11.0625 1.863281 -11.171875 2.28125 -11.171875 C 2.507812 -11.171875 2.703125 -11.097656 2.859375 -10.953125 C 3.023438 -10.804688 3.15625 -10.625 3.25 -10.40625 C 3.351562 -10.195312 3.429688 -9.972656 3.484375 -9.734375 C 3.535156 -9.492188 3.566406 -9.269531 3.578125 -9.0625 C 3.898438 -9.582031 4.257812 -10.003906 4.65625 -10.328125 C 5.0625 -10.660156 5.582031 -10.84375 6.21875 -10.875 C 6.539062 -10.882812 6.859375 -10.851562 7.171875 -10.78125 C 7.484375 -10.707031 7.769531 -10.585938 8.03125 -10.421875 C 8.289062 -10.253906 8.503906 -10.035156 8.671875 -9.765625 C 8.835938 -9.503906 8.929688 -9.191406 8.953125 -8.828125 C 8.972656 -8.398438 8.84375 -8.070312 8.5625 -7.84375 C 8.28125 -7.613281 7.941406 -7.492188 7.546875 -7.484375 Z M 7.546875 -7.484375 "/></g></g></g><g fill="#2c88f4" fill-opacity="1"><g transform="translate(23.590232, 44.548554)"><g><path d="M 4.40625 0.578125 C 3.726562 0.578125 3.132812 0.394531 2.625 0.03125 C 2.113281 -0.320312 1.6875 -0.78125 1.34375 -1.34375 C 1 -1.90625 0.738281 -2.53125 0.5625 -3.21875 C 0.382812 -3.90625 0.296875 -4.582031 0.296875 -5.25 C 0.296875 -5.957031 0.382812 -6.6875 0.5625 -7.4375 C 0.738281 -8.1875 1.003906 -8.875 1.359375 -9.5 C 1.722656 -10.125 2.179688 -10.628906 2.734375 -11.015625 C 3.296875 -11.410156 3.96875 -11.609375 4.75 -11.609375 C 5.488281 -11.609375 6.125 -11.40625 6.65625 -11 C 7.1875 -10.59375 7.609375 -10.082031 7.921875 -9.46875 C 8.242188 -8.863281 8.472656 -8.203125 8.609375 -7.484375 C 8.742188 -6.765625 8.789062 -6.085938 8.75 -5.453125 C 8.707031 -4.742188 8.59375 -4.023438 8.40625 -3.296875 C 8.226562 -2.578125 7.96875 -1.929688 7.625 -1.359375 C 7.28125 -0.785156 6.835938 -0.320312 6.296875 0.03125 C 5.765625 0.394531 5.132812 0.578125 4.40625 0.578125 Z M 4.609375 -8.46875 C 4.398438 -8.46875 4.21875 -8.359375 4.0625 -8.140625 C 3.914062 -7.929688 3.789062 -7.671875 3.6875 -7.359375 C 3.59375 -7.054688 3.519531 -6.734375 3.46875 -6.390625 C 3.414062 -6.054688 3.390625 -5.757812 3.390625 -5.5 C 3.390625 -5.1875 3.414062 -4.84375 3.46875 -4.46875 C 3.53125 -4.09375 3.613281 -3.75 3.71875 -3.4375 C 3.832031 -3.125 3.960938 -2.863281 4.109375 -2.65625 C 4.265625 -2.445312 4.441406 -2.34375 4.640625 -2.34375 C 4.859375 -2.34375 5.039062 -2.441406 5.1875 -2.640625 C 5.34375 -2.835938 5.46875 -3.085938 5.5625 -3.390625 C 5.65625 -3.703125 5.722656 -4.039062 5.765625 -4.40625 C 5.804688 -4.78125 5.828125 -5.128906 5.828125 -5.453125 C 5.828125 -5.742188 5.800781 -6.066406 5.75 -6.421875 C 5.695312 -6.773438 5.617188 -7.101562 5.515625 -7.40625 C 5.410156 -7.71875 5.28125 -7.972656 5.125 -8.171875 C 4.976562 -8.367188 4.804688 -8.46875 4.609375 -8.46875 Z M 4.609375 -8.46875 "/></g></g></g><g fill="#2c88f4" fill-opacity="1"><g transform="translate(32.75743, 44.548554)"><g><path d="M 12.75 -6.609375 C 12.75 -6.347656 12.75 -6 12.75 -5.5625 C 12.75 -5.132812 12.738281 -4.664062 12.71875 -4.15625 C 12.695312 -3.65625 12.65625 -3.144531 12.59375 -2.625 C 12.53125 -2.113281 12.425781 -1.648438 12.28125 -1.234375 C 12.144531 -0.828125 11.96875 -0.488281 11.75 -0.21875 C 11.539062 0.0507812 11.269531 0.1875 10.9375 0.1875 C 10.632812 0.1875 10.40625 0.0625 10.25 -0.1875 C 10.101562 -0.4375 9.992188 -0.726562 9.921875 -1.0625 C 9.859375 -1.394531 9.820312 -1.734375 9.8125 -2.078125 C 9.8125 -2.429688 9.8125 -2.707031 9.8125 -2.90625 C 9.8125 -3.5 9.832031 -4.082031 9.875 -4.65625 C 9.914062 -5.238281 9.9375 -5.828125 9.9375 -6.421875 C 9.9375 -6.492188 9.9375 -6.613281 9.9375 -6.78125 C 9.9375 -6.957031 9.921875 -7.128906 9.890625 -7.296875 C 9.859375 -7.472656 9.8125 -7.628906 9.75 -7.765625 C 9.695312 -7.898438 9.609375 -7.96875 9.484375 -7.96875 C 9.242188 -7.96875 9.050781 -7.84375 8.90625 -7.59375 C 8.757812 -7.351562 8.640625 -7.0625 8.546875 -6.71875 C 8.453125 -6.382812 8.382812 -6.054688 8.34375 -5.734375 C 8.300781 -5.410156 8.273438 -5.164062 8.265625 -5 C 8.242188 -4.832031 8.222656 -4.570312 8.203125 -4.21875 C 8.179688 -3.875 8.148438 -3.492188 8.109375 -3.078125 C 8.078125 -2.671875 8.023438 -2.25 7.953125 -1.8125 C 7.878906 -1.375 7.785156 -0.976562 7.671875 -0.625 C 7.554688 -0.269531 7.410156 0.015625 7.234375 0.234375 C 7.066406 0.460938 6.859375 0.578125 6.609375 0.578125 C 6.285156 0.578125 6.035156 0.4375 5.859375 0.15625 C 5.691406 -0.125 5.566406 -0.445312 5.484375 -0.8125 C 5.398438 -1.1875 5.347656 -1.566406 5.328125 -1.953125 C 5.316406 -2.347656 5.3125 -2.648438 5.3125 -2.859375 C 5.3125 -3.085938 5.3125 -3.304688 5.3125 -3.515625 C 5.320312 -3.734375 5.328125 -3.957031 5.328125 -4.1875 C 5.328125 -4.28125 5.328125 -4.429688 5.328125 -4.640625 C 5.328125 -4.859375 5.320312 -5.097656 5.3125 -5.359375 C 5.3125 -5.617188 5.300781 -5.890625 5.28125 -6.171875 C 5.257812 -6.453125 5.226562 -6.707031 5.1875 -6.9375 C 5.144531 -7.164062 5.082031 -7.351562 5 -7.5 C 4.925781 -7.65625 4.832031 -7.734375 4.71875 -7.734375 C 4.550781 -7.734375 4.394531 -7.617188 4.25 -7.390625 C 4.101562 -7.171875 3.972656 -6.910156 3.859375 -6.609375 C 3.753906 -6.316406 3.671875 -6.019531 3.609375 -5.71875 C 3.554688 -5.425781 3.53125 -5.210938 3.53125 -5.078125 L 3.53125 -4.96875 C 3.53125 -4.320312 3.566406 -3.691406 3.640625 -3.078125 C 3.722656 -2.460938 3.765625 -1.835938 3.765625 -1.203125 C 3.765625 -0.828125 3.644531 -0.484375 3.40625 -0.171875 C 3.164062 0.140625 2.832031 0.296875 2.40625 0.296875 C 2.09375 0.296875 1.835938 0.179688 1.640625 -0.046875 C 1.441406 -0.285156 1.273438 -0.585938 1.140625 -0.953125 C 1.003906 -1.328125 0.898438 -1.738281 0.828125 -2.1875 C 0.753906 -2.632812 0.703125 -3.078125 0.671875 -3.515625 C 0.648438 -3.953125 0.632812 -4.34375 0.625 -4.6875 C 0.625 -5.039062 0.625 -5.304688 0.625 -5.484375 C 0.625 -5.679688 0.617188 -5.972656 0.609375 -6.359375 C 0.597656 -6.753906 0.601562 -7.175781 0.625 -7.625 C 0.644531 -8.082031 0.679688 -8.546875 0.734375 -9.015625 C 0.796875 -9.492188 0.882812 -9.925781 1 -10.3125 C 1.125 -10.695312 1.28125 -11.007812 1.46875 -11.25 C 1.664062 -11.5 1.914062 -11.625 2.21875 -11.625 C 2.570312 -11.625 2.859375 -11.53125 3.078125 -11.34375 C 3.296875 -11.164062 3.40625 -10.890625 3.40625 -10.515625 C 3.40625 -10.429688 3.398438 -10.347656 3.390625 -10.265625 C 3.390625 -10.191406 3.378906 -10.117188 3.359375 -10.046875 C 3.503906 -10.265625 3.679688 -10.484375 3.890625 -10.703125 C 4.109375 -10.921875 4.34375 -11.117188 4.59375 -11.296875 C 4.84375 -11.484375 5.109375 -11.628906 5.390625 -11.734375 C 5.671875 -11.847656 5.945312 -11.90625 6.21875 -11.90625 C 6.488281 -11.90625 6.726562 -11.832031 6.9375 -11.6875 C 7.15625 -11.539062 7.34375 -11.359375 7.5 -11.140625 C 7.664062 -10.921875 7.800781 -10.679688 7.90625 -10.421875 C 8.007812 -10.171875 8.082031 -9.929688 8.125 -9.703125 C 8.257812 -9.941406 8.421875 -10.1875 8.609375 -10.4375 C 8.804688 -10.6875 9.019531 -10.90625 9.25 -11.09375 C 9.476562 -11.28125 9.726562 -11.429688 10 -11.546875 C 10.269531 -11.671875 10.550781 -11.734375 10.84375 -11.734375 C 11.125 -11.734375 11.363281 -11.628906 11.5625 -11.421875 C 11.769531 -11.222656 11.945312 -10.96875 12.09375 -10.65625 C 12.238281 -10.34375 12.347656 -9.988281 12.421875 -9.59375 C 12.503906 -9.207031 12.570312 -8.820312 12.625 -8.4375 C 12.6875 -8.0625 12.722656 -7.707031 12.734375 -7.375 C 12.742188 -7.050781 12.75 -6.796875 12.75 -6.609375 Z M 12.75 -6.609375 "/></g></g></g><g fill="#2c88f4" fill-opacity="1"><g transform="translate(46.228006, 44.548554)"><g><path d="M 8.984375 -3.5625 C 8.984375 -3.113281 8.835938 -2.671875 8.546875 -2.234375 C 8.265625 -1.796875 7.90625 -1.40625 7.46875 -1.0625 C 7.039062 -0.726562 6.578125 -0.457031 6.078125 -0.25 C 5.585938 -0.0390625 5.132812 0.0625 4.71875 0.0625 C 4.007812 0.0625 3.378906 -0.113281 2.828125 -0.46875 C 2.273438 -0.820312 1.8125 -1.269531 1.4375 -1.8125 C 1.0625 -2.363281 0.773438 -2.96875 0.578125 -3.625 C 0.390625 -4.289062 0.296875 -4.9375 0.296875 -5.5625 C 0.296875 -6.226562 0.390625 -6.941406 0.578125 -7.703125 C 0.765625 -8.460938 1.046875 -9.160156 1.421875 -9.796875 C 1.804688 -10.441406 2.289062 -10.976562 2.875 -11.40625 C 3.457031 -11.832031 4.144531 -12.046875 4.9375 -12.046875 C 5.394531 -12.046875 5.828125 -11.96875 6.234375 -11.8125 C 6.648438 -11.664062 7.007812 -11.453125 7.3125 -11.171875 C 7.625 -10.890625 7.875 -10.554688 8.0625 -10.171875 C 8.25 -9.785156 8.34375 -9.351562 8.34375 -8.875 C 8.34375 -8.238281 8.207031 -7.644531 7.9375 -7.09375 C 7.675781 -6.550781 7.320312 -6.078125 6.875 -5.671875 C 6.4375 -5.273438 5.929688 -4.953125 5.359375 -4.703125 C 4.785156 -4.460938 4.203125 -4.328125 3.609375 -4.296875 C 3.660156 -3.910156 3.816406 -3.628906 4.078125 -3.453125 C 4.335938 -3.285156 4.644531 -3.203125 5 -3.203125 C 5.269531 -3.203125 5.53125 -3.269531 5.78125 -3.40625 C 6.039062 -3.539062 6.289062 -3.691406 6.53125 -3.859375 C 6.769531 -4.023438 7.003906 -4.171875 7.234375 -4.296875 C 7.472656 -4.429688 7.710938 -4.5 7.953125 -4.5 C 8.210938 -4.5 8.445312 -4.410156 8.65625 -4.234375 C 8.875 -4.066406 8.984375 -3.84375 8.984375 -3.5625 Z M 5.75 -8.46875 C 5.75 -8.644531 5.703125 -8.828125 5.609375 -9.015625 C 5.515625 -9.203125 5.367188 -9.296875 5.171875 -9.296875 C 4.867188 -9.296875 4.617188 -9.21875 4.421875 -9.0625 C 4.222656 -8.90625 4.054688 -8.707031 3.921875 -8.46875 C 3.785156 -8.238281 3.679688 -7.988281 3.609375 -7.71875 C 3.535156 -7.457031 3.492188 -7.210938 3.484375 -6.984375 C 3.671875 -7.023438 3.894531 -7.078125 4.15625 -7.140625 C 4.414062 -7.210938 4.660156 -7.304688 4.890625 -7.421875 C 5.128906 -7.535156 5.332031 -7.675781 5.5 -7.84375 C 5.664062 -8.019531 5.75 -8.226562 5.75 -8.46875 Z M 5.75 -8.46875 "/></g></g></g><g fill="#2c88f4" fill-opacity="1"><g transform="translate(55.415219, 44.548554)"><g><path d="M 3.5 -0.96875 C 3.5 -0.789062 3.457031 -0.628906 3.375 -0.484375 C 3.300781 -0.347656 3.203125 -0.234375 3.078125 -0.140625 C 2.953125 -0.046875 2.8125 0.0234375 2.65625 0.078125 C 2.5 0.128906 2.34375 0.15625 2.1875 0.15625 C 1.976562 0.15625 1.757812 0.117188 1.53125 0.046875 C 1.300781 -0.0234375 1.085938 -0.125 0.890625 -0.25 C 0.691406 -0.382812 0.523438 -0.539062 0.390625 -0.71875 C 0.265625 -0.90625 0.203125 -1.113281 0.203125 -1.34375 C 0.203125 -1.695312 0.351562 -1.960938 0.65625 -2.140625 C 0.96875 -2.328125 1.285156 -2.421875 1.609375 -2.421875 C 1.804688 -2.421875 2.015625 -2.382812 2.234375 -2.3125 C 2.453125 -2.25 2.65625 -2.15625 2.84375 -2.03125 C 3.039062 -1.90625 3.195312 -1.75 3.3125 -1.5625 C 3.4375 -1.382812 3.5 -1.1875 3.5 -0.96875 Z M 3.5 -0.96875 "/></g></g></g><g fill="#4143ff" fill-opacity="1"><g transform="translate(59.124731, 44.548554)"><g><path d="M 4.34375 -12.125 C 4.34375 -11.40625 4.3125 -10.679688 4.25 -9.953125 C 4.195312 -9.234375 4.171875 -8.503906 4.171875 -7.765625 C 4.171875 -6.816406 4.195312 -5.867188 4.25 -4.921875 C 4.3125 -3.972656 4.34375 -3.019531 4.34375 -2.0625 C 4.34375 -1.820312 4.328125 -1.550781 4.296875 -1.25 C 4.273438 -0.945312 4.210938 -0.671875 4.109375 -0.421875 C 4.015625 -0.171875 3.863281 0.0390625 3.65625 0.21875 C 3.457031 0.394531 3.191406 0.484375 2.859375 0.484375 C 2.535156 0.484375 2.257812 0.328125 2.03125 0.015625 C 1.800781 -0.296875 1.609375 -0.695312 1.453125 -1.1875 C 1.296875 -1.675781 1.164062 -2.21875 1.0625 -2.8125 C 0.96875 -3.414062 0.894531 -4 0.84375 -4.5625 C 0.800781 -5.132812 0.769531 -5.65625 0.75 -6.125 C 0.726562 -6.601562 0.71875 -6.957031 0.71875 -7.1875 C 0.71875 -7.4375 0.726562 -7.800781 0.75 -8.28125 C 0.769531 -8.769531 0.8125 -9.289062 0.875 -9.84375 C 0.945312 -10.40625 1.039062 -10.976562 1.15625 -11.5625 C 1.269531 -12.144531 1.414062 -12.671875 1.59375 -13.140625 C 1.78125 -13.617188 2.003906 -14.003906 2.265625 -14.296875 C 2.523438 -14.597656 2.835938 -14.75 3.203125 -14.75 C 3.492188 -14.75 3.71875 -14.648438 3.875 -14.453125 C 4.03125 -14.265625 4.140625 -14.035156 4.203125 -13.765625 C 4.265625 -13.492188 4.300781 -13.207031 4.3125 -12.90625 C 4.332031 -12.601562 4.34375 -12.34375 4.34375 -12.125 Z M 4.34375 -12.125 "/></g></g></g><g fill="#4143ff" fill-opacity="1"><g transform="translate(64.388864, 44.548554)"><g><path d="M 4.9375 5.828125 C 4.625 5.828125 4.265625 5.773438 3.859375 5.671875 C 3.453125 5.578125 3.066406 5.4375 2.703125 5.25 C 2.335938 5.0625 2.03125 4.832031 1.78125 4.5625 C 1.539062 4.300781 1.421875 3.992188 1.421875 3.640625 C 1.421875 3.503906 1.453125 3.367188 1.515625 3.234375 C 1.585938 3.109375 1.679688 2.992188 1.796875 2.890625 C 1.910156 2.796875 2.03125 2.71875 2.15625 2.65625 C 2.289062 2.59375 2.429688 2.5625 2.578125 2.5625 C 2.742188 2.5625 2.898438 2.582031 3.046875 2.625 C 3.203125 2.675781 3.363281 2.734375 3.53125 2.796875 C 3.695312 2.867188 3.863281 2.929688 4.03125 2.984375 C 4.195312 3.035156 4.375 3.0625 4.5625 3.0625 C 4.894531 3.0625 5.1875 2.945312 5.4375 2.71875 C 5.6875 2.488281 5.894531 2.191406 6.0625 1.828125 C 6.238281 1.460938 6.378906 1.054688 6.484375 0.609375 C 6.585938 0.160156 6.671875 -0.28125 6.734375 -0.71875 C 6.796875 -1.15625 6.835938 -1.566406 6.859375 -1.953125 C 6.890625 -2.347656 6.910156 -2.664062 6.921875 -2.90625 C 6.453125 -2.195312 5.988281 -1.648438 5.53125 -1.265625 C 5.070312 -0.890625 4.507812 -0.703125 3.84375 -0.703125 C 3.332031 -0.703125 2.882812 -0.804688 2.5 -1.015625 C 2.125 -1.234375 1.800781 -1.515625 1.53125 -1.859375 C 1.269531 -2.203125 1.050781 -2.597656 0.875 -3.046875 C 0.707031 -3.492188 0.578125 -3.957031 0.484375 -4.4375 C 0.398438 -4.925781 0.34375 -5.398438 0.3125 -5.859375 C 0.289062 -6.316406 0.296875 -6.738281 0.328125 -7.125 C 0.335938 -7.414062 0.367188 -7.796875 0.421875 -8.265625 C 0.484375 -8.742188 0.582031 -9.207031 0.71875 -9.65625 C 0.851562 -10.113281 1.039062 -10.5 1.28125 -10.8125 C 1.519531 -11.132812 1.832031 -11.28125 2.21875 -11.25 C 2.476562 -11.238281 2.6875 -11.128906 2.84375 -10.921875 C 3 -10.710938 3.128906 -10.453125 3.234375 -10.140625 C 3.335938 -9.835938 3.410156 -9.503906 3.453125 -9.140625 C 3.503906 -8.773438 3.535156 -8.410156 3.546875 -8.046875 C 3.554688 -7.679688 3.554688 -7.347656 3.546875 -7.046875 C 3.546875 -6.753906 3.546875 -6.523438 3.546875 -6.359375 C 3.546875 -6.140625 3.550781 -5.914062 3.5625 -5.6875 C 3.570312 -5.457031 3.617188 -5.253906 3.703125 -5.078125 C 3.785156 -4.898438 3.910156 -4.753906 4.078125 -4.640625 C 4.242188 -4.535156 4.476562 -4.484375 4.78125 -4.484375 C 5.132812 -4.484375 5.410156 -4.566406 5.609375 -4.734375 C 5.816406 -4.910156 5.96875 -5.128906 6.0625 -5.390625 C 6.164062 -5.648438 6.234375 -5.929688 6.265625 -6.234375 C 6.296875 -6.535156 6.3125 -6.820312 6.3125 -7.09375 C 6.3125 -7.28125 6.3125 -7.503906 6.3125 -7.765625 C 6.3125 -8.035156 6.3125 -8.316406 6.3125 -8.609375 C 6.320312 -8.898438 6.347656 -9.1875 6.390625 -9.46875 C 6.441406 -9.757812 6.515625 -10.019531 6.609375 -10.25 C 6.710938 -10.488281 6.847656 -10.679688 7.015625 -10.828125 C 7.179688 -10.972656 7.398438 -11.046875 7.671875 -11.046875 C 8.003906 -11.046875 8.289062 -10.914062 8.53125 -10.65625 C 8.769531 -10.394531 8.972656 -10.054688 9.140625 -9.640625 C 9.304688 -9.222656 9.4375 -8.757812 9.53125 -8.25 C 9.632812 -7.738281 9.710938 -7.234375 9.765625 -6.734375 C 9.816406 -6.234375 9.851562 -5.769531 9.875 -5.34375 C 9.894531 -4.925781 9.90625 -4.597656 9.90625 -4.359375 C 9.90625 -3.804688 9.882812 -3.171875 9.84375 -2.453125 C 9.8125 -1.734375 9.738281 -1 9.625 -0.25 C 9.507812 0.5 9.335938 1.238281 9.109375 1.96875 C 8.878906 2.695312 8.582031 3.347656 8.21875 3.921875 C 7.851562 4.492188 7.398438 4.953125 6.859375 5.296875 C 6.328125 5.648438 5.6875 5.828125 4.9375 5.828125 Z M 4.9375 5.828125 "/></g></g></g></svg>